# xmcd
#
# Track frame offsets: 
#        150
#        19500
#        38514
#        54286
#        73636
#        88916
#        109277
#        125893
#        141010
#        158906
#        179598
#        196562
#
# Disc length: 2915 seconds
#
# Revision: 1
# Processed by: cddbd v1.5.2PL0 Copyright (c) Steve Scherf et al.
# Submitted via: ExactAudioCopy v0.95b3
#
DISCID=a00b610c
DTITLE=Jimmy Gonzalez Y Grupo Mazz - Si Me Faltas Tu
DYEAR=2003
DGENRE=Latin
TTITLE0=Yo Te Voy Amar 
TTITLE1=Dame Un Minuto
TTITLE2=Siempre Contigo
TTITLE3=Si Me Faltas Tu
TTITLE4=Llorare
TTITLE5=Hay Otra En Tu Lugar
TTITLE6=Junto A Ti
TTITLE7=Fuiste A Acapulco
TTITLE8=Que Viva La Novia
TTITLE9=Can't Fight This Feeling
TTITLE10=Siempre Contigo [Instrumental]
TTITLE11=Ahora Que Hago Sin Ti [Techno Remix]
EXTD=
EXTT0=
EXTT1=
EXTT2=
EXTT3=
EXTT4=
EXTT5=
EXTT6=
EXTT7=
EXTT8=
EXTT9=
EXTT10=
EXTT11=
PLAYORDER=
